<?xml version="1.0" standalone="no"?>
<!DOCTYPE svg PUBLIC "-//W3C//DTD SVG 20010904//EN"
 "http://www.w3.org/TR/2001/REC-SVG-20010904/DTD/svg10.dtd">
<svg version="1.0" xmlns="http://www.w3.org/2000/svg"
 width="569.000000pt" height="410.000000pt" viewBox="0 0 569.000000 410.000000"
 preserveAspectRatio="xMidYMid meet">

<g transform="translate(0.000000,410.000000) scale(0.100000,-0.100000)"
fill="#000000" stroke="none">
<path d="M2304 2501 c-104 -27 -196 -109 -235 -209 -19 -47 -23 -76 -23 -167
0 -135 21 -199 92 -274 70 -75 125 -96 247 -96 91 0 104 2 147 27 25 15 55 40
67 55 l20 28 1 -37 c0 -62 6 -68 66 -68 l54 0 0 200 0 200 -155 0 -155 0 0
-45 0 -45 94 0 94 0 -9 -41 c-27 -117 -107 -176 -228 -167 -74 6 -127 32 -162
81 -40 55 -52 108 -47 207 8 165 82 240 235 240 82 0 127 -21 162 -73 24 -37
25 -37 92 -37 l68 0 -15 44 c-21 61 -75 120 -140 152 -45 22 -71 27 -147 30
-51 2 -106 0 -123 -5z"/>
<path d="M2880 2130 l0 -370 60 0 60 0 0 133 1 132 34 38 c20 20 39 37 43 37
4 0 54 -77 111 -170 l104 -170 75 0 c56 0 73 3 69 13 -2 7 -64 106 -136 220
l-131 208 22 29 c13 15 74 83 137 149 l113 121 -78 0 -79 0 -134 -148 c-74
-81 -138 -148 -143 -150 -4 -2 -8 64 -8 147 l0 151 -60 0 -60 0 0 -370z"/>
</g>
</svg>
